Coordinates
version=1
nRows=7
nColumns=40
inDegrees=yes

Units are S.I. units (second, meters, Newtons, ...)
Angles are in degrees.

endheader
time	pelvis_tilt	pelvis_list	pelvis_rotation	pelvis_tx	pelvis_ty	pelvis_tz	hip_flexion_r	hip_adduction_r	hip_rotation_r	knee_angle_r	knee_angle_r_beta	ankle_angle_r	subtalar_angle_r	mtp_angle_r	hip_flexion_l	hip_adduction_l	hip_rotation_l	knee_angle_l	knee_angle_l_beta	ankle_angle_l	subtalar_angle_l	mtp_angle_l	lumbar_extension	lumbar_bending	lumbar_rotation	arm_flex_r	arm_add_r	arm_rot_r	elbow_flex_r	pro_sup_r	wrist_flex_r	wrist_dev_r	arm_flex_l	arm_add_l	arm_rot_l	elbow_flex_l	pro_sup_l	wrist_flex_l	wrist_dev_l
     36.69500000	     -2.28519770	     -5.94379536	     -1.54797118	      1.08200262	      0.92907962	      0.45497824	     14.98342447	      3.06205496	    -12.76814405	     18.65004086	     18.65004086	      7.67173702	      0.05047260	     -3.46771511	      9.84266908	    -15.40213804	     -8.74805674	     40.93868215	     40.93868215	      9.99757853	    -15.44750047	     -9.32884034	     -8.57060181	      5.35005412	      2.41098065	     -1.32162933	    -12.79129993	     -6.33940748	     32.83173678	     46.11445946	      0.00000000	      0.00000000	     10.99634568	    -15.81240377	    -10.95211865	     65.73128690	     47.41354730	      0.00000000	      0.00000000
     36.70800000	     -2.23555675	     -6.10591969	     -1.28100311	      1.08208609	      0.92932909	      0.45816423	     14.39793439	      3.42151754	    -13.12266582	     18.38107070	     18.38107070	      7.96092353	      0.24304579	     -3.53437124	     11.73398615	    -16.15589982	     -7.60322119	     44.52084333	     44.52084333	      8.32556526	    -16.07196610	     -9.27181513	     -8.62859180	      5.44405572	      2.43653435	     -0.37263546	    -12.82791687	     -6.05646135	     33.49117115	     46.07502412	      0.00000000	      0.00000000	     10.67258041	    -15.58210438	    -10.75621492	     65.35479308	     47.38998972	      0.00000000	      0.00000000
     36.72100000	     -2.18766334	     -6.22817774	     -0.98356451	      1.08197199	      0.92942405	      0.46102752	     13.86136991	      3.70162365	    -13.52264759	     18.18184048	     18.18184048	      8.29546521	      0.53571410	     -3.66399222	     13.69923201	    -16.74889156	     -6.33363593	     48.01829658	     48.01829658	      6.64364437	    -16.63657571	     -8.94985842	     -8.70162153	      5.51590052	      2.42172135	      0.60584662	    -12.91552032	     -5.79705492	     34.40901261	     46.02717787	      0.00000000	      0.00000000	     10.31138791	    -15.34150674	    -10.61782759	     64.88454044	     47.36889380	      0.00000000	      0.00000000
     36.73400000	     -2.20205943	     -6.20193397	     -0.68365980	      1.08160166	      0.92932303	      0.46339043	     13.50323573	      3.70244461	    -14.19178310	     18.18946907	     18.18946907	      8.66208674	      1.28307885	     -4.01205325	     15.88327284	    -16.94128112	     -4.85015259	     51.63106998	     51.63106998	      6.27922379	    -16.69111480	     -5.09307812	     -8.74217824	      5.49609869	      2.50358986	      0.38998192	    -13.75403280	     -3.24196028	     38.55820357	     45.69836763	      0.00000000	      0.00000000	     10.21844910	    -14.85532014	    -10.81905710	     63.63309867	     47.35615222	      0.00000000	      0.00000000
     36.74700000	     -2.10479910	     -6.30814530	     -0.39744973	      1.08107873	      0.92931766	      0.46573074	     13.01756138	      3.94885047	    -14.45273284	     18.11794514	     18.11794514	      8.97225589	      1.31690259	     -4.08652102	     17.74727752	    -17.32518595	     -3.65057598	     54.60475413	     54.60475413	      4.76147326	    -17.01000366	     -4.69359390	     -8.94839493	      5.56707433	      2.62231687	      1.54919252	    -13.96479056	     -3.14226005	     39.29118166	     45.67245693	      0.00000000	      0.00000000	      9.83807274	    -14.52035799	    -10.63026802	     63.19830727	     47.33106477	      0.00000000	      0.00000000
     36.76000000	     -2.04629876	     -6.34330392	     -0.11361984	      1.08042976	      0.92924942	      0.46774457	     12.62921928	      4.08140041	    -14.69763450	     18.13729042	     18.13729042	      9.29037363	      1.37588493	     -4.18565907	     19.58222180	    -17.51454231	     -2.49241999	     57.22401064	     57.22401064	      3.51585399	    -17.32145170	     -4.00427500	     -9.11365387	      5.60136990	      2.67411293	      2.77335849	    -14.20847273	     -3.06024429	     40.23420711	     45.63976493	      0.00000000	      0.00000000	      9.39620792	    -14.17816136	    -10.49965254	     62.57956045	     47.30718954	      0.00000000	      0.00000000
     36.77300000	     -2.08954136	     -6.21709056	      0.15032777	      1.07952642	      0.92899529	      0.46929750	     12.50298373	      3.93819161	    -15.08514844	     18.45102387	     18.45102387	      9.82829401	      1.70045917	     -4.08036762	     21.70464855	    -17.28880487	     -1.21741602	     59.99488055	     59.99488055	      4.92060344	    -16.68820077	      2.77476972	     -9.16349199	      5.54635521	      2.89100295	      2.59466640	    -15.25726265	     -0.92490947	     44.60085803	     45.36889024	      0.00000000	      0.00000000	      9.57508335	    -13.51203544	    -11.02854742	     60.07750236	     47.29393402	      0.00000000	      0.00000000
